<svg xmlns="http://www.w3.org/2000/svg" viewBox="0 0 124 33" width="124" height="33">
  <path fill="#253B80" d="M46.2 6.8h-9.7c-.7 0-1.2.5-1.3 1.1L31.6 26c-.1.4.2.8.6.8h4.6c.7 0 1.2-.5 1.3-1.1l1-6.3c.1-.6.6-1.1 1.3-1.1h3.1c6.4 0 10.1-3.1 11.1-9.2.4-2.7 0-4.8-1.3-6.2-1.3-1.5-3.7-2.1-7.1-2.1zm1.1 9.1c-.5 3.4-3.1 3.4-5.7 3.4h-1.4l1-6.3c.1-.4.4-.6.7-.6h.7c1.7 0 3.3 0 4.1 1 .5.5.6 1.4.6 2.5z"/>
  <path fill="#253B80" d="M73 15.8h-4.6c-.4 0-.7.3-.7.6l-.2 1.2-.3-.4c-.9-1.3-2.8-1.7-4.8-1.7-4.5 0-8.3 3.4-9.1 8.1-.4 2.4.2 4.7 1.5 6.2 1.2 1.5 3 2.1 5.1 2.1 3.6 0 5.7-2.3 5.7-2.3l-.2 1.2c-.1.4.2.8.6.8H70c.7 0 1.2-.5 1.3-1.1l2.3-14.1c.1-.5-.2-.8-.6-.8zm-7.1 7.9c-.4 2.3-2.3 3.9-4.7 3.9-1.2 0-2.2-.4-2.8-1.1-.6-.7-.8-1.8-.6-2.9.4-2.3 2.3-3.9 4.6-3.9 1.2 0 2.2.4 2.8 1.1.7.8.9 1.8.7 2.9z"/>
  <path fill="#253B80" d="M93.5 15.8H88.9c-.4 0-.8.2-1 .5l-5.9 8.7-2.5-8.3c-.2-.5-.6-.9-1.2-.9H74c-.5 0-.8.5-.6.9l4.7 13.8-4.4 6.2c-.3.5 0 1.1.6 1.1h4.6c.4 0 .8-.2 1-.5l14.2-20.5c.3-.4 0-1-.6-1z"/>
  <path fill="#179BD7" d="M104.2 6.8h-9.7c-.7 0-1.2.5-1.3 1.1L89.6 26c-.1.4.2.8.6.8h4.9c.5 0 .9-.3.9-.8l1.1-6.7c.1-.6.6-1.1 1.3-1.1h3.1c6.4 0 10.1-3.1 11.1-9.2.4-2.7 0-4.8-1.3-6.2-1.3-1.5-3.6-2-7.1-2zm1.1 9.1c-.5 3.4-3.1 3.4-5.7 3.4h-1.4l1-6.3c.1-.4.4-.6.7-.6h.7c1.7 0 3.3 0 4.1 1 .5.5.7 1.4.6 2.5z"/>
  <path fill="#179BD7" d="M130.9 15.8h-4.6c-.4 0-.7.3-.7.6l-.2 1.2-.3-.4c-.9-1.3-2.8-1.7-4.8-1.7-4.5 0-8.3 3.4-9.1 8.1-.4 2.4.2 4.7 1.5 6.2 1.2 1.5 3 2.1 5.1 2.1 3.6 0 5.7-2.3 5.7-2.3l-.2 1.2c-.1.4.2.8.6.8h4.1c.7 0 1.2-.5 1.3-1.1l2.3-14.1c.2-.5-.1-.8-.7-.8zm-7.1 7.9c-.4 2.3-2.3 3.9-4.7 3.9-1.2 0-2.2-.4-2.8-1.1-.6-.7-.8-1.8-.6-2.9.4-2.3 2.3-3.9 4.6-3.9 1.2 0 2.2.4 2.8 1.1.7.8.9 1.8.7 2.9z"/>
</svg>
